<svg width="200" height="200" viewBox="0 0 200 200" fill="none" xmlns="http://www.w3.org/2000/svg">
<path d="M36.869 92.5415C36.8595 91.9372 37.5268 91.5657 38.0355 91.892L125.151 147.777C125.369 147.916 125.5 148.156 125.5 148.414L125.5 152.113C125.5 152.712 124.837 153.074 124.333 152.75L37.2739 96.8113C37.0606 96.6742 36.93 96.4394 36.926 96.1858L36.869 92.5415Z" fill="#B6B6B6" stroke="#949494" stroke-width="2"/>
<path d="M44.4243 50.2182L52.7576 46.4304L55.788 47.9455L51.2425 50.2182L133.394 98.4592C134.5 99.1085 135.859 99.1543 137.006 98.5808L139.712 97.2276L143.5 99.5003L136.953 102.476C135.833 102.985 134.535 102.919 133.473 102.298L44.4243 50.2182Z" fill="#B6B6B6" stroke="#949494" stroke-width="2" stroke-linecap="round" stroke-linejoin="round"/>
<path d="M32.303 47.9455L141.394 111.667M26.2424 58.5516L135.712 123.788" stroke="#949494" stroke-width="2" stroke-linejoin="round"/>
<path d="M136.761 164.398C136.511 153.913 135.946 135.095 135.612 123.682C135.441 117.846 138.706 112.538 143.976 110.026L147.071 108.551C147.071 108.551 165.636 99.9653 173.97 95.6723M147.253 162.029L173.819 148.276C175.084 147.622 175.874 146.314 175.866 144.891L175.602 99.3511C175.587 96.6384 174.122 94.1412 171.762 92.8038L63.4344 31.4192C62.2663 30.7573 60.8352 30.7632 59.6725 31.4347L33.2097 46.7183C28.5354 49.4179 25.6503 54.4005 25.6359 59.7984L25.5569 89.4725C25.5429 94.7004 28.2226 99.5627 32.6442 102.352C61.1171 120.315 104.398 148.057 124.542 160.988C131.388 165.382 140.028 165.768 147.253 162.029Z" stroke="black" stroke-width="2"/>
</svg>
