<svg width="200" height="200" viewBox="0 0 200 200" fill="none" xmlns="http://www.w3.org/2000/svg">
<path d="M63.7509 104.389C67.0528 104.11 69.3152 98.9763 68.804 92.9227C68.2928 86.8691 65.2016 82.1877 61.8997 82.4666C58.5977 82.7454 56.3354 87.8788 56.8466 93.9324C57.3578 99.986 60.4489 104.667 63.7509 104.389Z" fill="#B6B6B6"/>
<path d="M76 131V77M105 80V134M51 60V114M148 62V116M68.804 92.9227C69.3152 98.9763 67.0528 104.11 63.7509 104.389C60.4489 104.667 57.3578 99.986 56.8466 93.9324C56.3354 87.8788 58.5977 82.7454 61.8997 82.4666C65.2016 82.1877 68.2928 86.8691 68.804 92.9227Z" stroke="#949494" stroke-width="2"/>
<path d="M108 152V164C108 165.648 109.339 167 111 167H112C113.661 167 115 165.648 115 164V151C112.831 151.654 110.494 151.635 108 152Z" fill="#B6B6B6"/>
<path d="M85.0001 151V155C85.0001 156.648 86.3388 158 88.0001 158H89.0001C90.6615 158 92.0001 156.648 92.0001 155V153C89.5181 152.683 87.1824 151.602 85.0001 151Z" fill="#B6B6B6"/>
<path d="M152 57C152.072 55.2036 150.873 53.9733 149 53L118 36C110.278 31.9873 101.117 31.8439 93.0001 35L52.0001 51C49.8435 51.8386 48.9181 54.0074 49.0001 56M152 57C151.928 58.7958 150.944 61.1775 149 62L106 80C96.5711 83.989 85.4733 82.7228 77.0001 77L51.0001 60C49.5833 59.0431 49.0608 57.4744 49.0001 56M152 57V112C151.928 113.796 150.944 115.177 149 116L129 124M49.0001 56V110C49.0608 111.474 49.5833 113.043 51.0001 114L70.0001 127M70.0001 127L77.0001 132C85.4733 137.723 96.5711 137.989 106 134L129 124M70.0001 127V139C70.0001 144.389 76.0206 148.524 85.0001 151M129 124V139C129 144.186 123.425 148.458 115 151M85.0001 151V155C85.0001 156.648 86.3388 158 88.0001 158M85.0001 151C87.1824 151.602 89.5181 152.683 92.0001 153M92.0001 153C94.4014 153.307 97.4014 153 100 153C102.963 153 105.301 152.395 108 152M92.0001 153V155C92.0001 156.648 90.6615 158 89.0001 158M108 152V164C108 165.648 109.339 167 111 167H112C113.661 167 115 165.648 115 164V151M108 152C110.494 151.635 112.831 151.654 115 151M89.0001 158C88.6644 158 88.3358 158 88.0001 158M89.0001 158H88.0001M77.0001 66C82.4238 62.5237 90.7335 60 100 60C109.188 60 116.575 62.5744 122 66M77.0001 66C82.4256 69.203 90.8149 71 100 71C109.269 71 116.577 69.2537 122 66M77.0001 66C72.776 63.5063 70.0001 60.4869 70.0001 57C70.0001 49.0345 83.6635 42 100 42C116.337 42 129 49.0345 129 57C129 60.4459 126.135 63.5193 122 66" stroke="black" stroke-width="2"/>
</svg>
