<svg width="200" height="200" viewBox="0 0 200 200" fill="none" xmlns="http://www.w3.org/2000/svg">
<path d="M104.442 59.1001C104.607 59.3304 104.683 59.7084 104.506 60.2287C104.33 60.7468 103.922 61.3207 103.287 61.7771C102.652 62.2336 101.978 62.4373 101.431 62.4389C100.881 62.4405 100.547 62.2483 100.381 62.018C100.216 61.7877 100.14 61.4097 100.317 60.8894C100.493 60.3714 100.901 59.7974 101.536 59.341C102.171 58.8846 102.845 58.6808 103.392 58.6792C103.942 58.6777 104.276 58.8698 104.442 59.1001Z" fill="#B6B6B6" stroke="#949494" stroke-width="2"/>
<path d="M94.5257 56.8612C94.7332 57.15 94.7424 57.937 93.8912 58.5487C93.04 59.1604 92.2971 58.9007 92.0896 58.612C91.8821 58.3232 91.8729 57.5363 92.7241 56.9246C93.5753 56.3129 94.3182 56.5725 94.5257 56.8612Z" stroke="#949494" stroke-width="2"/>
<path d="M101.442 46.1001C101.607 46.3304 101.683 46.7084 101.506 47.2287C101.33 47.7468 100.922 48.3207 100.287 48.7771C99.6518 49.2336 98.9776 49.4373 98.4305 49.4389C97.881 49.4405 97.5469 49.2483 97.3814 49.018C97.2159 48.7877 97.1403 48.4097 97.317 47.8894C97.493 47.3714 97.901 46.7974 98.5361 46.341C99.1712 45.8846 99.8453 45.6808 100.392 45.6792C100.942 45.6777 101.276 45.8698 101.442 46.1001Z" fill="#B6B6B6" stroke="#949494" stroke-width="2"/>
<path d="M88.4416 65.1001C88.6071 65.3304 88.6827 65.7084 88.506 66.2287C88.33 66.7468 87.922 67.3207 87.2869 67.7771C86.6518 68.2336 85.9776 68.4373 85.4305 68.4389C84.881 68.4405 84.5469 68.2483 84.3814 68.018C84.2159 67.7877 84.1403 67.4097 84.317 66.8894C84.493 66.3714 84.901 65.7974 85.5361 65.341C86.1712 64.8846 86.8453 64.6808 87.3925 64.6792C87.942 64.6777 88.2761 64.8698 88.4416 65.1001Z" fill="#B6B6B6" stroke="#949494" stroke-width="2"/>
<path d="M74.1104 139.571C74.5535 139.571 75.0308 139.809 75.4317 140.343C75.8327 140.878 76.1104 141.662 76.1104 142.571C76.1104 143.481 75.8327 144.265 75.4317 144.8C75.0308 145.334 74.5535 145.571 74.1104 145.571C73.6673 145.571 73.1899 145.334 72.789 144.8C72.388 144.265 72.1104 143.481 72.1104 142.571C72.1104 141.662 72.388 140.878 72.789 140.343C73.1899 139.809 73.6673 139.571 74.1104 139.571Z" stroke="#949494" stroke-width="2"/>
<path d="M74.1104 93.5715L70.1104 91.5715V106.571L74.1104 108.571V93.5715Z" stroke="#949494" stroke-width="2" stroke-linecap="round" stroke-linejoin="round"/>
<path d="M85.4416 52.1001C85.6071 52.3304 85.6827 52.7084 85.506 53.2287C85.33 53.7468 84.922 54.3207 84.2869 54.7771C83.6518 55.2336 82.9776 55.4373 82.4305 55.4389C81.881 55.4405 81.5469 55.2483 81.3814 55.018C81.2159 54.7877 81.1403 54.4097 81.317 53.8894C81.493 53.3714 81.901 52.7974 82.5361 52.341C83.1712 51.8846 83.8453 51.6808 84.3925 51.6792C84.942 51.6777 85.2761 51.8698 85.4416 52.1001Z" fill="#B6B6B6" stroke="#949494" stroke-width="2"/>
<path d="M100.11 92.5715C118.835 92.5715 134.534 84.821 137.11 70.5715C134.534 81.3814 118.835 89.5715 100.11 89.5715C81.3851 89.5715 64.6868 81.3815 62.1102 70.5715C64.6868 84.821 81.3851 92.5715 100.11 92.5715Z" fill="#B6B6B6"/>
<path d="M137.11 66.5715C137.11 67.9976 137.358 69.1996 137.11 70.5715M137.11 70.5715C134.534 84.821 118.835 92.5715 100.11 92.5715C81.3851 92.5715 64.6868 84.821 62.1102 70.5715M137.11 70.5715C137.358 69.5307 137.11 68.6534 137.11 67.5715M137.11 70.5715C134.534 81.3814 118.835 89.5715 100.11 89.5715C81.3851 89.5715 64.6868 81.3815 62.1102 70.5715M62.1102 70.5715C61.8622 69.1996 62.1102 67.9977 62.1102 66.5715M62.1102 70.5715C61.8622 69.5307 62.1102 68.6534 62.1102 67.5715" stroke="#949494" stroke-width="2"/>
<path d="M100.11 33.5715C120.638 33.5715 137.11 50.8634 137.11 71.5715V138.571C137.11 139.978 137.358 141.219 137.11 142.571M100.11 33.5715C90.3592 33.5715 80.7403 37.3749 74.1103 43.5715M100.11 33.5715V33.5715C108.864 33.6184 115.756 37.803 119.11 44.5715C124.48 55.4047 117.642 69.2418 103.11 76.5715C88.6228 83.8785 71.5291 81.3221 66.1103 70.5715M137.11 142.571C134.534 156.623 118.835 167.571 100.11 167.571C81.3851 167.571 64.6868 156.623 62.1103 142.571M137.11 142.571C137.358 141.545 137.11 140.638 137.11 139.571M137.11 142.571C134.534 153.232 118.835 161.571 100.11 161.571C81.3851 161.571 64.6868 153.232 62.1103 142.571M62.1103 142.571C61.8622 141.219 62.1103 139.978 62.1103 138.571V71.5715C62.1103 60.7 66.7827 50.42 74.1103 43.5715M62.1103 142.571C61.8622 141.545 62.1103 140.638 62.1103 139.571M66.1103 70.5715C66.1268 70.6049 66.0935 70.5382 66.1103 70.5715M74.1103 43.5715C63.1873 53.0846 62.971 66.0935 66.1103 70.5715" stroke="black" stroke-width="2"/>
<ellipse cx="93.0612" cy="57.0439" rx="23" ry="16.5" transform="rotate(-26.5645 93.0612 57.0439)" stroke="#949494" stroke-width="2"/>
</svg>
