<svg width="24" height="24" viewBox="0 0 24 24" fill="none" xmlns="http://www.w3.org/2000/svg">
<circle cx="12" cy="12" r="12" fill="#7DBDBD"/>
<g clip-path="url(#clip0_2507_104)">
<path d="M16.2398 7.77097C15.1047 6.63584 13.599 6.01074 12 6.01074C10.3973 6.01074 8.89057 6.63486 7.75732 7.76809C6.62407 8.90131 6 10.4081 6 12.0107C6 13.5591 6.59156 15.0266 7.64302 16.1357H7.125C6.91788 16.1357 6.75 16.3036 6.75 16.5107C6.75 16.7178 6.91788 16.8857 7.125 16.8857H8.625C8.83212 16.8857 9 16.7178 9 16.5107V15.0107C9 14.8036 8.83212 14.6357 8.625 14.6357C8.41788 14.6357 8.25 14.8036 8.25 15.0107V15.6849C7.29098 14.7071 6.75 13.3959 6.75 12.0107C6.75 9.11588 9.10512 6.76074 12 6.76074C13.3986 6.76074 14.716 7.30784 15.7095 8.30129C16.7029 9.29473 17.25 10.6121 17.25 12.0108C17.25 14.747 15.1978 16.9949 12.4765 17.2394C12.4429 17.2422 12.4195 17.228 12.4057 17.2154C12.3917 17.2026 12.375 17.1801 12.375 17.1458V14.9793C13.4377 14.8002 14.25 13.8736 14.25 12.7607V11.2607C14.25 11.0536 14.0821 10.8857 13.875 10.8857H13.5V9.76074C13.5 9.55365 13.3321 9.38574 13.125 9.38574C12.9179 9.38574 12.75 9.55365 12.75 9.76074V10.8857H11.25V9.76074C11.25 9.55365 11.0821 9.38574 10.875 9.38574C10.6679 9.38574 10.5 9.55365 10.5 9.76074V10.8857H10.125C9.91786 10.8857 9.74998 11.0536 9.74998 11.2607V12.7607C9.74998 13.8736 10.5622 14.8002 11.625 14.9793V17.1458C11.625 17.3823 11.7251 17.6094 11.8996 17.769C12.0554 17.9113 12.2594 17.9898 12.4687 17.9898C12.4936 17.9898 12.5186 17.9887 12.5436 17.9864C14.0294 17.8529 15.4057 17.1721 16.419 16.0694C17.4385 14.96 18 13.5186 18 12.0108C18 10.4118 17.3749 8.90605 16.2398 7.77097V7.77097ZM11.4375 12.7607C11.4375 12.4506 11.6899 12.1982 12 12.1982C12.3101 12.1982 12.5625 12.4506 12.5625 12.7607C12.5625 13.0709 12.3101 13.3232 12 13.3232C11.6899 13.3232 11.4375 13.0709 11.4375 12.7607Z" fill="white"/>
</g>
<defs>
<clipPath id="clip0_2507_104">
<rect width="12" height="12" fill="white" transform="translate(6 6)"/>
</clipPath>
</defs>
</svg>
